<svg width="3823" height="972" xmlns="http://www.w3.org/2000/svg" xmlns:xlink="http://www.w3.org/1999/xlink" xml:space="preserve" overflow="hidden"><defs><linearGradient x1="3582.5" y1="3256.5" x2="3582.5" y2="2877.5" gradientUnits="userSpaceOnUse" spreadMethod="reflect" id="fill0"><stop offset="0" stop-color="#C4E0B8" stop-opacity="1"/><stop offset="1" stop-color="#AFC2DE" stop-opacity="1"/></linearGradient><linearGradient x1="4829" y1="3086.5" x2="4829" y2="2706.5" gradientUnits="userSpaceOnUse" spreadMethod="reflect" id="fill1"><stop offset="0" stop-color="#C4E0B8" stop-opacity="1"/><stop offset="0.5" stop-color="#AFC2DE" stop-opacity="1"/><stop offset="1" stop-color="#FFAC9B" stop-opacity="1"/></linearGradient></defs><g transform="translate(-1301 -2383)"><g><path d="M2154.5 3059.04 2512.96 3059.04 2512.96 3081.96 2154.5 3081.96ZM2501.5 3036.12 2570.25 3070.5 2501.5 3104.88Z" fill="#000000" fill-rule="nonzero" fill-opacity="1"/><path d="M1887.5 3059.04 1960.13 3059.04 1960.13 3081.96 1887.5 3081.96ZM1948.67 3036.12 2017.42 3070.5 1948.67 3104.88Z" fill="#000000" fill-rule="nonzero" fill-opacity="1"/><path d="M1497.5 3013C1497.5 2998.92 1508.92 2987.5 1523 2987.5L1860 2987.5C1874.08 2987.5 1885.5 2998.92 1885.5 3013L1885.5 3115C1885.5 3129.08 1874.08 3140.5 1860 3140.5L1523 3140.5C1508.92 3140.5 1497.5 3129.08 1497.5 3115Z" stroke="#000000" stroke-width="9.16667" stroke-linecap="butt" stroke-linejoin="miter" stroke-miterlimit="8" stroke-opacity="1" fill="#C4E0B7" fill-rule="evenodd" fill-opacity="1"/><text fill="#000000" fill-opacity="1" font-family="Times,Times_MSFontService,sans-serif" font-style="normal" font-variant="normal" font-weight="400" font-stretch="normal" font-size="110" text-anchor="start" direction="ltr" writing-mode="lr-tb" unicode-bidi="normal" text-decoration="none" transform="matrix(1 0 0 1 1560.61 3098)">CSA</text><text fill="#000000" fill-opacity="1" font-family="Cambria Math,Cambria Math_MSFontService,sans-serif" font-style="normal" font-variant="normal" font-weight="400" font-stretch="normal" font-size="73" text-anchor="start" direction="ltr" writing-mode="lr-tb" unicode-bidi="normal" text-decoration="none" transform="matrix(1 0 0 1 1774.88 3065)">ğ‘‡</text><rect x="2020.5" y="2879.5" width="139" height="380" stroke="#000000" stroke-width="9.16667" stroke-linecap="butt" stroke-linejoin="miter" stroke-miterlimit="8" stroke-opacity="1" fill="#AEC2DE" fill-opacity="1"/><text fill="#000000" fill-opacity="1" font-family="Cambria Math,Cambria Math_MSFontService,sans-serif" font-style="normal" font-variant="normal" font-weight="400" font-stretch="normal" font-size="110" text-anchor="start" direction="ltr" writing-mode="lr-tb" unicode-bidi="normal" text-decoration="none" transform="matrix(-1.83697e-16 -1 1 -1.83697e-16 2123.39 3183)">3</text><text fill="#000000" fill-opacity="1" font-family="Cambria Math,Cambria Math_MSFontService,sans-serif" font-style="normal" font-variant="normal" font-weight="400" font-stretch="normal" font-size="110" text-anchor="start" direction="ltr" writing-mode="lr-tb" unicode-bidi="normal" text-decoration="none" transform="matrix(-1.83697e-16 -1 1 -1.83697e-16 2123.39 3122)">Ã—</text><text fill="#000000" fill-opacity="1" font-family="Cambria Math,Cambria Math_MSFontService,sans-serif" font-style="normal" font-variant="normal" font-weight="400" font-stretch="normal" font-size="110" text-anchor="start" direction="ltr" writing-mode="lr-tb" unicode-bidi="normal" text-decoration="none" transform="matrix(-1.83697e-16 -1 1 -1.83697e-16 2123.39 3043)">3</text><path d="M1305.5 3059.04 1434.1 3059.04 1434.1 3081.96 1305.5 3081.96ZM1422.64 3036.12 1491.39 3070.5 1422.64 3104.88Z" fill="#000000" fill-rule="nonzero" fill-opacity="1"/><path d="M1392.5 2564.5 1392.5 3071.19" stroke="#000000" stroke-width="22.9167" stroke-linecap="butt" stroke-linejoin="miter" stroke-miterlimit="8" stroke-opacity="1" fill="none" fill-rule="evenodd"/><path d="M1392.5 2566.04 1750.96 2566.04 1750.96 2588.96 1392.5 2588.96ZM1739.5 2543.13 1808.25 2577.5 1739.5 2611.88Z" fill="#000000" fill-rule="nonzero" fill-opacity="1"/><path d="M2250 3064C2250 3014.29 2290.29 2974 2340 2974 2389.71 2974 2430 3014.29 2430 3064 2430 3113.71 2389.71 3154 2340 3154 2290.29 3154 2250 3113.71 2250 3064Z" stroke="#000000" stroke-width="13.75" stroke-linecap="butt" stroke-linejoin="miter" stroke-miterlimit="8" stroke-opacity="1" fill="#FFFFFF" fill-rule="evenodd" fill-opacity="1"/><text fill="#000000" fill-opacity="1" font-family="Calibri,Calibri_MSFontService,sans-serif" font-style="normal" font-variant="normal" font-weight="400" font-stretch="normal" font-size="248" text-anchor="start" direction="ltr" writing-mode="lr-tb" unicode-bidi="normal" text-decoration="none" transform="matrix(1 0 0 1 2276.97 3135)">+</text><path d="M1954.5 2581.5 2344.26 2581.5" stroke="#000000" stroke-width="22.9167" stroke-linecap="butt" stroke-linejoin="miter" stroke-miterlimit="8" stroke-opacity="1" fill="none" fill-rule="evenodd"/><path d="M2349.96 2570.5 2349.96 2915.96 2327.04 2915.96 2327.04 2570.5ZM2372.88 2904.51 2338.5 2973.26 2304.13 2904.51Z" fill="#000000" fill-rule="nonzero" fill-opacity="1"/><rect x="1811.5" y="2391.5" width="138" height="379" stroke="#000000" stroke-width="9.16667" stroke-linecap="butt" stroke-linejoin="miter" stroke-miterlimit="8" stroke-opacity="1" fill="#FFAB9B" fill-opacity="1"/><text fill="#000000" fill-opacity="1" font-family="Cambria Math,Cambria Math_MSFontService,sans-serif" font-style="normal" font-variant="normal" font-weight="400" font-stretch="normal" font-size="110" text-anchor="start" direction="ltr" writing-mode="lr-tb" unicode-bidi="normal" text-decoration="none" transform="matrix(-1.83697e-16 -1 1 -1.83697e-16 1914.02 2694)">3</text><text fill="#000000" fill-opacity="1" font-family="Cambria Math,Cambria Math_MSFontService,sans-serif" font-style="normal" font-variant="normal" font-weight="400" font-stretch="normal" font-size="110" text-anchor="start" direction="ltr" writing-mode="lr-tb" unicode-bidi="normal" text-decoration="none" transform="matrix(-1.83697e-16 -1 1 -1.83697e-16 1914.02 2633)">Ã—</text><text fill="#000000" fill-opacity="1" font-family="Cambria Math,Cambria Math_MSFontService,sans-serif" font-style="normal" font-variant="normal" font-weight="400" font-stretch="normal" font-size="110" text-anchor="start" direction="ltr" writing-mode="lr-tb" unicode-bidi="normal" text-decoration="none" transform="matrix(-1.83697e-16 -1 1 -1.83697e-16 1914.02 2555)">3</text><path d="M3651.65 3052.04 4036.1 3057.09 4035.8 3080 3651.35 3074.96ZM4024.94 3034.02 4093.23 3069.3 4024.04 3102.77Z" fill="#000000" fill-rule="nonzero" fill-opacity="1"/><rect x="3513.5" y="2877.5" width="138" height="379" stroke="#000000" stroke-width="9.16667" stroke-linecap="butt" stroke-linejoin="miter" stroke-miterlimit="8" stroke-opacity="1" fill="url(#fill0)"/><text fill="#000000" fill-opacity="1" font-family="Cambria Math,Cambria Math_MSFontService,sans-serif" font-style="normal" font-variant="normal" font-weight="400" font-stretch="normal" font-size="110" text-anchor="start" direction="ltr" writing-mode="lr-tb" unicode-bidi="normal" text-decoration="none" transform="matrix(-1.83697e-16 -1 1 -1.83697e-16 3615.94 3180)">3</text><text fill="#000000" fill-opacity="1" font-family="Cambria Math,Cambria Math_MSFontService,sans-serif" font-style="normal" font-variant="normal" font-weight="400" font-stretch="normal" font-size="110" text-anchor="start" direction="ltr" writing-mode="lr-tb" unicode-bidi="normal" text-decoration="none" transform="matrix(-1.83697e-16 -1 1 -1.83697e-16 3615.94 3119)">Ã—</text><text fill="#000000" fill-opacity="1" font-family="Cambria Math,Cambria Math_MSFontService,sans-serif" font-style="normal" font-variant="normal" font-weight="400" font-stretch="normal" font-size="110" text-anchor="start" direction="ltr" writing-mode="lr-tb" unicode-bidi="normal" text-decoration="none" transform="matrix(-1.83697e-16 -1 1 -1.83697e-16 3615.94 3041)">3</text><path d="M0.000521991-11.4583 267.512-11.4461 267.511 11.4705-0.000521991 11.4583ZM256.055-34.3633 324.803 0.0147966 256.052 34.3867Z" fill="#000000" fill-rule="nonzero" fill-opacity="1" transform="matrix(1 0 0 -1 3189.5 3072.51)"/><path d="M3276.5 2572.5 3276.5 3079.19" stroke="#000000" stroke-width="22.9167" stroke-linecap="butt" stroke-linejoin="miter" stroke-miterlimit="8" stroke-opacity="1" fill="none" fill-rule="evenodd"/><path d="M3276.5 2574.04 3453.07 2574.04 3453.07 2596.96 3276.5 2596.96ZM3441.61 2551.12 3510.36 2585.5 3441.61 2619.88Z" fill="#000000" fill-rule="nonzero" fill-opacity="1"/><path d="M3764 3066C3764 3016.29 3804.29 2976 3854 2976 3903.71 2976 3944 3016.29 3944 3066 3944 3115.71 3903.71 3156 3854 3156 3804.29 3156 3764 3115.71 3764 3066Z" stroke="#000000" stroke-width="13.75" stroke-linecap="butt" stroke-linejoin="miter" stroke-miterlimit="8" stroke-opacity="1" fill="#FFFFFF" fill-rule="evenodd" fill-opacity="1"/><text fill="#000000" fill-opacity="1" font-family="Calibri,Calibri_MSFontService,sans-serif" font-style="normal" font-variant="normal" font-weight="400" font-stretch="normal" font-size="248" text-anchor="start" direction="ltr" writing-mode="lr-tb" unicode-bidi="normal" text-decoration="none" transform="matrix(1 0 0 1 3791.08 3138)">+</text><path d="M3655.5 2583.5 3847.85 2583.5" stroke="#000000" stroke-width="22.9167" stroke-linecap="butt" stroke-linejoin="miter" stroke-miterlimit="8" stroke-opacity="1" fill="none" fill-rule="evenodd"/><path d="M3863.96 2573.5 3863.96 2918.96 3841.04 2918.96 3841.04 2573.5ZM3886.88 2907.51 3852.5 2976.26 3818.13 2907.51Z" fill="#000000" fill-rule="nonzero" fill-opacity="1"/><rect x="3512.5" y="2393.5" width="138" height="379" stroke="#000000" stroke-width="9.16667" stroke-linecap="butt" stroke-linejoin="miter" stroke-miterlimit="8" stroke-opacity="1" fill="#FFAB9B" fill-opacity="1"/><text fill="#000000" fill-opacity="1" font-family="Cambria Math,Cambria Math_MSFontService,sans-serif" font-style="normal" font-variant="normal" font-weight="400" font-stretch="normal" font-size="110" text-anchor="start" direction="ltr" writing-mode="lr-tb" unicode-bidi="normal" text-decoration="none" transform="matrix(-1.83697e-16 -1 1 -1.83697e-16 3614.88 2697)">3</text><text fill="#000000" fill-opacity="1" font-family="Cambria Math,Cambria Math_MSFontService,sans-serif" font-style="normal" font-variant="normal" font-weight="400" font-stretch="normal" font-size="110" text-anchor="start" direction="ltr" writing-mode="lr-tb" unicode-bidi="normal" text-decoration="none" transform="matrix(-1.83697e-16 -1 1 -1.83697e-16 3614.88 2636)">Ã—</text><text fill="#000000" fill-opacity="1" font-family="Cambria Math,Cambria Math_MSFontService,sans-serif" font-style="normal" font-variant="normal" font-weight="400" font-stretch="normal" font-size="110" text-anchor="start" direction="ltr" writing-mode="lr-tb" unicode-bidi="normal" text-decoration="none" transform="matrix(-1.83697e-16 -1 1 -1.83697e-16 3614.88 2557)">3</text><path d="M4608.65 2891.04 4993.1 2896.09 4992.8 2919 4608.35 2913.96ZM4981.94 2873.02 5050.23 2908.3 4981.04 2941.77Z" fill="#000000" fill-rule="nonzero" fill-opacity="1"/><rect x="4759.5" y="2706.5" width="139" height="380" stroke="#000000" stroke-width="9.16667" stroke-linecap="butt" stroke-linejoin="miter" stroke-miterlimit="8" stroke-opacity="1" fill="url(#fill1)"/><text fill="#000000" fill-opacity="1" font-family="Cambria Math,Cambria Math_MSFontService,sans-serif" font-style="normal" font-variant="normal" font-weight="400" font-stretch="normal" font-size="110" text-anchor="start" direction="ltr" writing-mode="lr-tb" unicode-bidi="normal" text-decoration="none" transform="matrix(-1.83697e-16 -1 1 -1.83697e-16 4862.81 3010)">3</text><text fill="#000000" fill-opacity="1" font-family="Cambria Math,Cambria Math_MSFontService,sans-serif" font-style="normal" font-variant="normal" font-weight="400" font-stretch="normal" font-size="110" text-anchor="start" direction="ltr" writing-mode="lr-tb" unicode-bidi="normal" text-decoration="none" transform="matrix(-1.83697e-16 -1 1 -1.83697e-16 4862.81 2949)">Ã—</text><text fill="#000000" fill-opacity="1" font-family="Cambria Math,Cambria Math_MSFontService,sans-serif" font-style="normal" font-variant="normal" font-weight="400" font-stretch="normal" font-size="110" text-anchor="start" direction="ltr" writing-mode="lr-tb" unicode-bidi="normal" text-decoration="none" transform="matrix(-1.83697e-16 -1 1 -1.83697e-16 4862.81 2871)">3</text><path d="M2637.5 2864.25 2903 2864.25 2903 2820.5 2990.5 2908 2903 2995.5 2903 2951.75 2637.5 2951.75Z" stroke="#00B050" stroke-width="4.58333" stroke-linecap="butt" stroke-linejoin="miter" stroke-miterlimit="8" stroke-opacity="1" fill="#00B050" fill-rule="evenodd" fill-opacity="0.490196"/><text fill="#000000" fill-opacity="1" font-family="Times,Times_MSFontService,sans-serif" font-style="italic" font-variant="normal" font-weight="400" font-stretch="normal" font-size="110" text-anchor="start" direction="ltr" writing-mode="lr-tb" unicode-bidi="normal" text-decoration="none" transform="matrix(1 0 0 1 2465.31 2769)">Sequential</text><text fill="#000000" fill-opacity="1" font-family="Times,Times_MSFontService,sans-serif" font-style="italic" font-variant="normal" font-weight="400" font-stretch="normal" font-size="110" text-anchor="start" direction="ltr" writing-mode="lr-tb" unicode-bidi="normal" text-decoration="none" transform="matrix(1 0 0 1 2956.3 2769)">Rep.</text><text fill="#000000" fill-opacity="1" font-family="Times,Times_MSFontService,sans-serif" font-style="italic" font-variant="normal" font-weight="400" font-stretch="normal" font-size="110" text-anchor="start" direction="ltr" writing-mode="lr-tb" unicode-bidi="normal" text-decoration="none" transform="matrix(1 0 0 1 3988.53 2774)">Parallel</text><text fill="#000000" fill-opacity="1" font-family="Times,Times_MSFontService,sans-serif" font-style="italic" font-variant="normal" font-weight="400" font-stretch="normal" font-size="110" text-anchor="start" direction="ltr" writing-mode="lr-tb" unicode-bidi="normal" text-decoration="none" transform="matrix(1 0 0 1 4375.82 2774)">Rep.</text><path d="M4108.5 2859.25 4374 2859.25 4374 2815.5 4461.5 2903 4374 2990.5 4374 2946.75 4108.5 2946.75Z" stroke="#00B050" stroke-width="4.58333" stroke-linecap="butt" stroke-linejoin="miter" stroke-miterlimit="8" stroke-opacity="1" fill="#00B050" fill-rule="evenodd" fill-opacity="0.490196"/></g></g></svg>