<svg width="2540" height="1159" xmlns="http://www.w3.org/2000/svg" xmlns:xlink="http://www.w3.org/1999/xlink" xml:space="preserve" overflow="hidden"><g transform="translate(-760 -678)"><g><rect x="1699" y="809" width="776" height="902" fill="#F7F7F9" fill-opacity="1"/><rect x="2508" y="811" width="775" height="902" fill="#F7F7F9" fill-opacity="1"/><text fill="#000000" fill-opacity="1" font-family="Cambria Math,Cambria Math_MSFontService,sans-serif" font-style="normal" font-variant="normal" font-weight="400" font-stretch="normal" font-size="73" text-anchor="start" direction="ltr" writing-mode="lr-tb" unicode-bidi="normal" text-decoration="none" transform="matrix(-1.83697e-16 -1 1 -1.83697e-16 848.101 1347)">log</text><path d="M793.433 1174.42C795.262 1167.48 799.213 1162.15 805.284 1158.43 811.356 1154.71 818.681 1152.85 827.259 1152.85 835.861 1152.85 843.186 1154.71 849.234 1158.42 855.282 1162.12 859.22 1167.46 861.05 1174.42L858.306 1175.28C856.476 1169.79 852.864 1165.7 847.47 1163.03 842.075 1160.36 835.22 1159.02 826.903 1159.02 818.871 1159.02 812.199 1160.35 806.888 1163.01 801.577 1165.67 798.007 1169.8 796.177 1175.38ZM793.433 1223.95 796.177 1222.98C798.007 1228.54 801.577 1232.66 806.888 1235.33 812.199 1238.01 818.871 1239.34 826.903 1239.34 835.22 1239.34 842.075 1238.01 847.47 1235.33 852.864 1232.66 856.476 1228.58 858.306 1223.09L861.05 1223.95C859.22 1230.91 855.282 1236.24 849.234 1239.95 843.186 1243.66 835.861 1245.51 827.259 1245.51 818.681 1245.51 811.356 1243.65 805.284 1239.93 799.213 1236.21 795.262 1230.88 793.433 1223.95Z" fill="#000000" fill-rule="evenodd" fill-opacity="1"/><text fill="#000000" fill-opacity="1" font-family="Cambria Math,Cambria Math_MSFontService,sans-serif" font-style="normal" font-variant="normal" font-weight="400" font-stretch="normal" font-size="73" text-anchor="start" direction="ltr" writing-mode="lr-tb" unicode-bidi="normal" text-decoration="none" transform="matrix(-1.83697e-16 -1 1 -1.83697e-16 848.101 1221)">ğœ</text><path d="M3285 809C3283.61 812.731 3193.6 811.305 3192.21 815.037L2618.31 1715 2506.99 1713.41C2506.95 1692.1 2506.04 1665.63 2506 1644.32L3282.09 886.925 3282.63 812.177 3285 809Z" fill="#DAE3F3" fill-rule="evenodd" fill-opacity="1"/><path d="M3156 887C3156 858.281 3179.28 835 3208 835 3236.72 835 3260 858.281 3260 887 3260 915.719 3236.72 939 3208 939 3179.28 939 3156 915.719 3156 887Z" fill="#F8CBAD" fill-rule="evenodd" fill-opacity="1"/><path d="M2540 1641C2540 1610.62 2564.4 1586 2594.5 1586 2624.6 1586 2649 1610.62 2649 1641 2649 1671.38 2624.6 1696 2594.5 1696 2564.4 1696 2540 1671.38 2540 1641Z" fill="#F8CBAD" fill-rule="evenodd" fill-opacity="1"/><path d="M0 0 736.206 901.04" stroke="#4472C4" stroke-width="6.875" stroke-linecap="butt" stroke-linejoin="miter" stroke-miterlimit="8" stroke-opacity="1" fill="none" fill-rule="evenodd" transform="matrix(1 0 0 -1 2533.5 1712.54)"/><path d="M0 0 578.566 901.04" stroke="#4472C4" stroke-width="6.875" stroke-linecap="butt" stroke-linejoin="miter" stroke-miterlimit="8" stroke-dasharray="6.875 6.875" stroke-opacity="1" fill="none" fill-rule="evenodd" transform="matrix(1 0 0 -1 2616.5 1711.54)"/><path d="M0 0 778.018 760.301" stroke="#4472C4" stroke-width="6.875" stroke-linecap="butt" stroke-linejoin="miter" stroke-miterlimit="8" stroke-dasharray="6.875 6.875" stroke-opacity="1" fill="none" fill-rule="evenodd" transform="matrix(1 0 0 -1 2507.5 1646.8)"/><path d="M3189 886C3189 874.402 3198.4 865 3210 865 3221.6 865 3231 874.402 3231 886 3231 897.598 3221.6 907 3210 907 3198.4 907 3189 897.598 3189 886Z" fill="#ED7D31" fill-rule="evenodd" fill-opacity="1"/><rect x="2507.5" y="811.5" width="775" height="902" stroke="#000000" stroke-width="4.58333" stroke-linecap="butt" stroke-linejoin="miter" stroke-miterlimit="8" stroke-opacity="1" fill="none"/><path d="M2574 1639C2574 1627.4 2583.4 1618 2595 1618 2606.6 1618 2616 1627.4 2616 1639 2616 1650.6 2606.6 1660 2595 1660 2583.4 1660 2574 1650.6 2574 1639Z" fill="#ED7D31" fill-rule="evenodd" fill-opacity="1"/><path d="M1700.33 809C1698.94 812.728 1704.43 977.92 1703.04 981.648L1858.58 1708.29 1700.99 1711C1700.94 1689.7 1700.04 1591.11 1700 1569.82L2476 1638.36C2475.89 1362.39 2475.79 1086.42 2475.68 810.457L1700.33 809Z" fill="#DAE3F3" fill-rule="evenodd" fill-opacity="1"/><path d="M1698.5 1567.5 2471.15 1637.69" stroke="#4472C4" stroke-width="6.875" stroke-linecap="butt" stroke-linejoin="miter" stroke-miterlimit="8" stroke-dasharray="6.875 6.875" stroke-opacity="1" fill="none" fill-rule="evenodd"/><path d="M1861.08 1709.06 1707.5 993.5" stroke="#4472C4" stroke-width="6.875" stroke-linecap="butt" stroke-linejoin="miter" stroke-miterlimit="8" stroke-dasharray="6.875 6.875" stroke-opacity="1" fill="none" fill-rule="evenodd"/><path d="M1729 1636C1729 1605.62 1753.62 1581 1784 1581 1814.38 1581 1839 1605.62 1839 1636 1839 1666.38 1814.38 1691 1784 1691 1753.62 1691 1729 1666.38 1729 1636Z" fill="#F8CBAD" fill-rule="evenodd" fill-opacity="1"/><path d="M1825 1523C1825 1492.62 1849.85 1468 1880.5 1468 1911.15 1468 1936 1492.62 1936 1523 1936 1553.38 1911.15 1578 1880.5 1578 1849.85 1578 1825 1553.38 1825 1523Z" fill="#F8CBAD" fill-rule="evenodd" fill-opacity="1"/><path d="M0 0 737.342 899.983" stroke="#4472C4" stroke-width="6.875" stroke-linecap="butt" stroke-linejoin="miter" stroke-miterlimit="8" stroke-opacity="1" fill="none" fill-rule="evenodd" transform="matrix(1 0 0 -1 1726.5 1708.48)"/><path d="M1764 1635.5C1764 1624.18 1773.4 1615 1785 1615 1796.6 1615 1806 1624.18 1806 1635.5 1806 1646.82 1796.6 1656 1785 1656 1773.4 1656 1764 1646.82 1764 1635.5Z" fill="#ED7D31" fill-rule="evenodd" fill-opacity="1"/><path d="M1859 1523C1859 1511.4 1868.18 1502 1879.5 1502 1890.82 1502 1900 1511.4 1900 1523 1900 1534.6 1890.82 1544 1879.5 1544 1868.18 1544 1859 1534.6 1859 1523Z" fill="#ED7D31" fill-rule="evenodd" fill-opacity="1"/><rect x="1700.5" y="808.5" width="776" height="902" stroke="#000000" stroke-width="4.58333" stroke-linecap="butt" stroke-linejoin="miter" stroke-miterlimit="8" stroke-opacity="1" fill="none"/><rect x="891" y="811" width="776" height="902" fill="#DAE3F3" fill-opacity="1"/><path d="M924 1636C924 1605.62 948.624 1581 979 1581 1009.38 1581 1034 1605.62 1034 1636 1034 1666.38 1009.38 1691 979 1691 948.624 1691 924 1666.38 924 1636Z" fill="#F8CBAD" fill-rule="evenodd" fill-opacity="1"/><path d="M0 0 737.342 899.983" stroke="#4472C4" stroke-width="6.875" stroke-linecap="butt" stroke-linejoin="miter" stroke-miterlimit="8" stroke-opacity="1" fill="none" fill-rule="evenodd" transform="matrix(1 0 0 -1 917.5 1710.48)"/><path d="M958 1636C958 1624.4 967.402 1615 979 1615 990.598 1615 1000 1624.4 1000 1636 1000 1647.6 990.598 1657 979 1657 967.402 1657 958 1647.6 958 1636Z" fill="#ED7D31" fill-rule="evenodd" fill-opacity="1"/><rect x="892.5" y="810.5" width="775" height="902" stroke="#000000" stroke-width="4.58333" stroke-linecap="butt" stroke-linejoin="miter" stroke-miterlimit="8" stroke-opacity="1" fill="none"/><text fill="#000000" fill-opacity="1" font-family="Times,Times_MSFontService,sans-serif" font-style="normal" font-variant="normal" font-weight="400" font-stretch="normal" font-size="73" text-anchor="start" direction="ltr" writing-mode="lr-tb" unicode-bidi="normal" text-decoration="none" transform="matrix(1 0 0 1 2537.98 770)">2 Pairs, </text><text fill="#000000" fill-opacity="1" font-family="Times,Times_MSFontService,sans-serif" font-style="normal" font-variant="normal" font-weight="700" font-stretch="normal" font-size="73" text-anchor="start" direction="ltr" writing-mode="lr-tb" unicode-bidi="normal" text-decoration="none" transform="matrix(1 0 0 1 2776.89 770)">Different</text><text fill="#000000" fill-opacity="1" font-family="Times,Times_MSFontService,sans-serif" font-style="normal" font-variant="normal" font-weight="400" font-stretch="normal" font-size="73" text-anchor="start" direction="ltr" writing-mode="lr-tb" unicode-bidi="normal" text-decoration="none" transform="matrix(1 0 0 1 3079.82 770)">Gains</text><text fill="#000000" fill-opacity="1" font-family="Times,Times_MSFontService,sans-serif" font-style="normal" font-variant="normal" font-weight="400" font-stretch="normal" font-size="73" text-anchor="start" direction="ltr" writing-mode="lr-tb" unicode-bidi="normal" text-decoration="none" transform="matrix(1 0 0 1 1757.23 771)">2 Pairs, </text><text fill="#000000" fill-opacity="1" font-family="Times,Times_MSFontService,sans-serif" font-style="normal" font-variant="normal" font-weight="700" font-stretch="normal" font-size="73" text-anchor="start" direction="ltr" writing-mode="lr-tb" unicode-bidi="normal" text-decoration="none" transform="matrix(1 0 0 1 1996.13 771)">Similar</text><text fill="#000000" fill-opacity="1" font-family="Times,Times_MSFontService,sans-serif" font-style="normal" font-variant="normal" font-weight="400" font-stretch="normal" font-size="73" text-anchor="start" direction="ltr" writing-mode="lr-tb" unicode-bidi="normal" text-decoration="none" transform="matrix(1 0 0 1 2247.64 771)">Gains</text><text fill="#000000" fill-opacity="1" font-family="Times,Times_MSFontService,sans-serif" font-style="normal" font-variant="normal" font-weight="400" font-stretch="normal" font-size="73" text-anchor="start" direction="ltr" writing-mode="lr-tb" unicode-bidi="normal" text-decoration="none" transform="matrix(1 0 0 1 1178.56 770)">1 Pairs</text><text fill="#000000" fill-opacity="1" font-family="Cambria Math,Cambria Math_MSFontService,sans-serif" font-style="normal" font-variant="normal" font-weight="400" font-stretch="normal" font-size="73" text-anchor="start" direction="ltr" writing-mode="lr-tb" unicode-bidi="normal" text-decoration="none" transform="matrix(1 0 0 1 1166.29 1787)">log</text><path d="M1347.35 1732.6C1354.29 1734.43 1359.62 1738.39 1363.34 1744.46 1367.06 1750.53 1368.92 1757.85 1368.92 1766.43 1368.92 1775.03 1367.06 1782.36 1363.36 1788.41 1359.65 1794.45 1354.32 1798.39 1347.35 1800.22L1346.5 1797.48C1351.99 1795.65 1356.07 1792.04 1358.74 1786.64 1361.41 1781.25 1362.75 1774.39 1362.75 1766.07 1362.75 1758.04 1361.42 1751.37 1358.76 1746.06 1356.1 1740.75 1351.97 1737.18 1346.39 1735.35ZM1289.37 1732.6 1290.33 1735.35C1284.77 1737.18 1280.66 1740.75 1277.98 1746.06 1275.31 1751.37 1273.97 1758.04 1273.97 1766.07 1273.97 1774.39 1275.31 1781.25 1277.98 1786.64 1280.66 1792.04 1284.74 1795.65 1290.23 1797.48L1289.37 1800.22C1282.41 1798.39 1277.07 1794.45 1273.37 1788.41 1269.66 1782.36 1267.81 1775.03 1267.81 1766.43 1267.81 1757.85 1269.67 1750.53 1273.38 1744.46 1277.1 1738.39 1282.43 1734.43 1289.37 1732.6Z" fill="#000000" fill-rule="evenodd" fill-opacity="1"/><text fill="#000000" fill-opacity="1" font-family="Cambria Math,Cambria Math_MSFontService,sans-serif" font-style="normal" font-variant="normal" font-weight="400" font-stretch="normal" font-size="73" text-anchor="start" direction="ltr" writing-mode="lr-tb" unicode-bidi="normal" text-decoration="none" transform="matrix(1 0 0 1 1291.82 1787)">ğ¾</text><text fill="#000000" fill-opacity="1" font-family="Cambria Math,Cambria Math_MSFontService,sans-serif" font-style="normal" font-variant="normal" font-weight="400" font-stretch="normal" font-size="73" text-anchor="start" direction="ltr" writing-mode="lr-tb" unicode-bidi="normal" text-decoration="none" transform="matrix(1 0 0 1 1963.68 1787)">log</text><path d="M2144.75 1732.6C2151.69 1734.43 2157.02 1738.39 2160.74 1744.46 2164.46 1750.53 2166.32 1757.85 2166.32 1766.43 2166.32 1775.03 2164.46 1782.36 2160.76 1788.41 2157.05 1794.45 2151.71 1798.39 2144.75 1800.22L2143.9 1797.48C2149.39 1795.65 2153.47 1792.04 2156.14 1786.64 2158.81 1781.25 2160.15 1774.39 2160.15 1766.07 2160.15 1758.04 2158.82 1751.37 2156.16 1746.06 2153.5 1740.75 2149.37 1737.18 2143.79 1735.35ZM2086.77 1732.6 2087.73 1735.35C2082.17 1737.18 2078.05 1740.75 2075.38 1746.06 2072.71 1751.37 2071.37 1758.04 2071.37 1766.07 2071.37 1774.39 2072.71 1781.25 2075.38 1786.64 2078.05 1792.04 2082.14 1795.65 2087.62 1797.48L2086.77 1800.22C2079.81 1798.39 2074.47 1794.45 2070.77 1788.41 2067.06 1782.36 2065.2 1775.03 2065.2 1766.43 2065.2 1757.85 2067.06 1750.53 2070.78 1744.46 2074.5 1738.39 2079.83 1734.43 2086.77 1732.6Z" fill="#000000" fill-rule="evenodd" fill-opacity="1"/><text fill="#000000" fill-opacity="1" font-family="Cambria Math,Cambria Math_MSFontService,sans-serif" font-style="normal" font-variant="normal" font-weight="400" font-stretch="normal" font-size="73" text-anchor="start" direction="ltr" writing-mode="lr-tb" unicode-bidi="normal" text-decoration="none" transform="matrix(1 0 0 1 2089.22 1787)">ğ¾</text><text fill="#000000" fill-opacity="1" font-family="Cambria Math,Cambria Math_MSFontService,sans-serif" font-style="normal" font-variant="normal" font-weight="400" font-stretch="normal" font-size="73" text-anchor="start" direction="ltr" writing-mode="lr-tb" unicode-bidi="normal" text-decoration="none" transform="matrix(1 0 0 1 2782 1787)">log</text><path d="M2963.07 1732.6C2970.01 1734.43 2975.33 1738.39 2979.05 1744.46 2982.77 1750.53 2984.63 1757.85 2984.63 1766.43 2984.63 1775.03 2982.78 1782.36 2979.07 1788.41 2975.36 1794.45 2970.03 1798.39 2963.07 1800.22L2962.21 1797.48C2967.7 1795.65 2971.78 1792.04 2974.45 1786.64 2977.13 1781.25 2978.46 1774.39 2978.46 1766.07 2978.46 1758.04 2977.13 1751.37 2974.47 1746.06 2971.81 1740.75 2967.69 1737.18 2962.1 1735.35ZM2905.08 1732.6 2906.05 1735.35C2900.49 1737.18 2896.37 1740.75 2893.7 1746.06 2891.02 1751.37 2889.69 1758.04 2889.69 1766.07 2889.69 1774.39 2891.02 1781.25 2893.7 1786.64 2896.37 1792.04 2900.45 1795.65 2905.94 1797.48L2905.08 1800.22C2898.12 1798.39 2892.79 1794.45 2889.08 1788.41 2885.37 1782.36 2883.52 1775.03 2883.52 1766.43 2883.52 1757.85 2885.38 1750.53 2889.1 1744.46 2892.82 1738.39 2898.15 1734.43 2905.08 1732.6Z" fill="#000000" fill-rule="evenodd" fill-opacity="1"/><text fill="#000000" fill-opacity="1" font-family="Cambria Math,Cambria Math_MSFontService,sans-serif" font-style="normal" font-variant="normal" font-weight="400" font-stretch="normal" font-size="73" text-anchor="start" direction="ltr" writing-mode="lr-tb" unicode-bidi="normal" text-decoration="none" transform="matrix(1 0 0 1 2907.54 1787)">ğ¾</text><path d="M1.09768-0.328682 135.423 448.269 133.227 448.927-1.09768 0.328682ZM146.183 440.264 140.899 470.552 119.838 448.152Z" fill="#4472C4" fill-rule="nonzero" fill-opacity="1" transform="matrix(-1 0 0 1 3199.9 924)"/><path d="M3103.24 1016.63 2969.58 975.792 2970.25 973.601 3103.91 1014.44ZM2970.28 989.186 2948 968 2978.32 962.886Z" fill="#4472C4" fill-rule="nonzero" fill-opacity="1"/><text fill="#000000" fill-opacity="1" font-family="Times,Times_MSFontService,sans-serif" font-style="normal" font-variant="normal" font-weight="400" font-stretch="normal" font-size="55" text-anchor="start" direction="ltr" writing-mode="lr-tb" unicode-bidi="normal" text-decoration="none" transform="matrix(1 0 0 1 2553.69 963)">Optimal Solution</text><text fill="#000000" fill-opacity="1" font-family="Times,Times_MSFontService,sans-serif" font-style="normal" font-variant="normal" font-weight="400" font-stretch="normal" font-size="55" text-anchor="start" direction="ltr" writing-mode="lr-tb" unicode-bidi="normal" text-decoration="none" transform="matrix(1 0 0 1 2866.96 1437)">Sampling Scope</text></g></g></svg>