<svg xmlns="http://www.w3.org/2000/svg" viewBox="0 0 146 30" width="146" height="30" fill="currentColor" shape-rendering="geometricPrecision" data-navbar-logo="true"><path d="M53.121 13v-1.95h3.3c.59 0 1.034-.16 1.33-.48.307-.33.46-.786.46-1.365 0-.591-.165-1.058-.496-1.401-.32-.343-.78-.515-1.384-.515h-3.21V5.34h3.069c.555 0 .975-.13 1.259-.39.295-.272.443-.669.443-1.189s-.142-.91-.425-1.17c-.273-.272-.68-.408-1.224-.408H53.12V.232h3.707c1.135 0 2.051.289 2.749.868.698.58 1.046 1.366 1.046 2.359 0 .626-.148 1.164-.443 1.614A2.87 2.87 0 0 1 58.992 6.1a3.828 3.828 0 0 1-1.667.355l.088-.373c.662 0 1.26.142 1.792.426a3.26 3.26 0 0 1 1.294 1.206c.32.508.479 1.111.479 1.809s-.166 1.312-.497 1.844c-.319.52-.774.923-1.365 1.206-.58.284-1.265.426-2.057.426H53.12Zm-2.234 0V.231h2.731V13h-2.731ZM62.297 13V.231h2.66V13h-2.66ZM72.486 13a5.772 5.772 0 0 1-.16-.834 13.048 13.048 0 0 1-.035-1.028h-.07V6.864c0-.367-.125-.65-.373-.851-.237-.213-.591-.32-1.064-.32-.45 0-.81.077-1.082.23-.26.155-.432.38-.515.675h-2.536c.119-.816.538-1.49 1.26-2.022.72-.532 1.708-.798 2.961-.798 1.3 0 2.294.29 2.98.869.685.58 1.028 1.413 1.028 2.5v3.99c0 .296.018.598.053.905a8.9 8.9 0 0 0 .213.958h-2.66Zm-3.157.177c-.898 0-1.613-.224-2.146-.674-.532-.46-.798-1.07-.798-1.826 0-.84.314-1.514.94-2.022.639-.52 1.525-.857 2.66-1.01l2.643-.373v1.543l-2.2.337c-.472.07-.82.2-1.046.39-.224.189-.336.449-.336.78 0 .296.106.52.319.674.213.154.496.23.851.23.556 0 1.029-.147 1.419-.443.39-.307.585-.662.585-1.064l.248 1.419c-.26.674-.656 1.182-1.188 1.525-.532.343-1.182.514-1.95.514ZM80.53 13.177c-.946 0-1.78-.2-2.5-.603a4.435 4.435 0 0 1-1.704-1.667c-.401-.71-.602-1.519-.602-2.43 0-.91.2-1.72.602-2.429a4.435 4.435 0 0 1 1.703-1.667c.721-.402 1.555-.603 2.5-.603.793 0 1.502.148 2.129.443.638.284 1.159.68 1.56 1.189.414.508.68 1.105.798 1.79h-2.571c-.13-.437-.366-.768-.71-.992-.33-.225-.72-.337-1.17-.337-.425 0-.798.106-1.117.319a2.032 2.032 0 0 0-.71.904c-.165.39-.248.852-.248 1.384 0 .532.083.993.248 1.383.166.39.402.692.71.904.32.213.692.32 1.117.32.45 0 .84-.113 1.17-.337.344-.225.58-.556.71-.993h2.572a3.807 3.807 0 0 1-.799 1.79 4.2 4.2 0 0 1-1.56 1.207c-.627.284-1.336.425-2.128.425ZM86.107 13V.231h2.66V13h-2.66Zm5.8 0-3.76-4.7 3.67-4.345h3.069l-4.31 4.753.125-.833L95.063 13h-3.157ZM50.887 29V16.231h2.731V29h-2.731Zm1.277-4.948v-2.093h7.324v2.093h-7.324Zm0-5.728V16.23h7.732v2.093h-7.732ZM65.29 29.177c-.993 0-1.868-.195-2.625-.585a4.496 4.496 0 0 1-1.755-1.667c-.414-.721-.621-1.549-.621-2.483 0-.934.207-1.75.62-2.447a4.41 4.41 0 0 1 1.756-1.632c.757-.39 1.632-.585 2.625-.585 1.005 0 1.88.195 2.625.585a4.26 4.26 0 0 1 1.756 1.632c.413.697.62 1.513.62 2.447 0 .934-.212 1.762-.638 2.483-.414.71-1 1.265-1.756 1.667-.745.39-1.614.585-2.607.585Zm0-2.092c.414 0 .786-.107 1.117-.32.343-.212.615-.514.816-.904.201-.402.302-.88.302-1.437 0-.815-.219-1.442-.657-1.88a2.087 2.087 0 0 0-1.578-.673c-.627 0-1.159.224-1.596.674-.426.449-.638 1.075-.638 1.88 0 .555.1 1.034.301 1.436.201.39.467.692.798.904.343.213.721.32 1.135.32ZM71.417 29v-9.045h2.607v2.129h.054V29h-2.66Zm2.66-4.717-.23-2.146c.213-.769.562-1.354 1.046-1.756.485-.402 1.088-.603 1.81-.603.224 0 .39.024.496.07v2.484a.69.69 0 0 0-.248-.036 3.622 3.622 0 0 0-.39-.017c-.852 0-1.478.153-1.88.46-.402.296-.603.81-.603 1.544ZM82.317 29.177c-1.005 0-1.88-.195-2.624-.585a4.371 4.371 0 0 1-1.739-1.667c-.401-.71-.602-1.525-.602-2.447 0-.934.2-1.75.602-2.448.414-.71.988-1.259 1.72-1.649.734-.402 1.585-.603 2.555-.603.934 0 1.743.19 2.43.568a4.02 4.02 0 0 1 1.595 1.578c.379.674.568 1.466.568 2.376 0 .19-.006.367-.018.532-.012.154-.03.302-.053.444h-7.839V23.52h5.693l-.461.32c0-.734-.177-1.272-.532-1.615-.343-.354-.816-.532-1.419-.532-.697 0-1.241.237-1.632.71-.378.473-.567 1.182-.567 2.128 0 .922.19 1.608.567 2.057.39.45.97.674 1.738.674.426 0 .793-.07 1.1-.213.308-.142.538-.372.692-.691h2.5c-.295.874-.804 1.566-1.525 2.075-.71.496-1.626.744-2.749.744ZM91.7 29.177c-1.324 0-2.376-.266-3.156-.798-.78-.532-1.206-1.265-1.277-2.199h2.376c.06.402.26.71.603.922.355.201.84.302 1.454.302.556 0 .958-.077 1.206-.23a.778.778 0 0 0 .39-.692c0-.225-.076-.396-.23-.515-.142-.13-.408-.236-.798-.319l-1.454-.301c-1.076-.225-1.868-.562-2.377-1.011-.508-.461-.762-1.052-.762-1.774 0-.875.337-1.554 1.01-2.04.674-.496 1.614-.744 2.82-.744 1.194 0 2.146.242 2.856.727.709.473 1.1 1.135 1.17 1.986h-2.376a.91.91 0 0 0-.497-.691c-.284-.166-.686-.249-1.206-.249-.473 0-.828.071-1.064.213a.62.62 0 0 0-.337.568c0 .213.095.384.284.514.189.118.502.225.94.32l1.631.336c.91.19 1.596.544 2.057 1.064.473.509.71 1.112.71 1.81 0 .886-.349 1.578-1.047 2.074-.685.485-1.66.727-2.926.727ZM100.957 29.195c-1.159 0-2.022-.278-2.59-.834-.555-.567-.833-1.424-.833-2.571v-7.856l2.66-.994v8.939c0 .402.112.703.337.904.225.201.573.302 1.046.302.178 0 .343-.018.497-.054.154-.035.307-.076.461-.124v2.022c-.154.083-.372.148-.656.195a5.412 5.412 0 0 1-.922.071Zm-5.108-7.218v-2.022h6.686v2.022h-6.686ZM106.761 29V16.231h2.731V29h-2.731Zm1.277 0v-2.093h7.59V29h-7.59ZM122.392 29a5.72 5.72 0 0 1-.159-.834 12.884 12.884 0 0 1-.036-1.028h-.071v-4.274c0-.367-.124-.65-.372-.852-.237-.212-.591-.319-1.064-.319-.45 0-.81.077-1.082.23a1.1 1.1 0 0 0-.515.675h-2.536c.119-.816.538-1.49 1.26-2.022.721-.532 1.708-.798 2.961-.798 1.301 0 2.294.29 2.98.869.685.58 1.028 1.413 1.028 2.5v3.99c0 .296.018.598.054.905.047.296.118.615.212.958h-2.66Zm-3.157.177c-.898 0-1.613-.224-2.146-.674-.532-.46-.798-1.07-.798-1.826 0-.84.314-1.514.94-2.022.639-.52 1.526-.857 2.661-1.01l2.642-.373v1.543l-2.199.337c-.473.07-.822.2-1.046.39-.225.189-.337.449-.337.78 0 .296.106.52.319.674.213.154.496.23.851.23.556 0 1.029-.147 1.419-.443.39-.307.585-.662.585-1.064l.248 1.419c-.26.674-.656 1.182-1.188 1.525-.532.343-1.182.514-1.951.514ZM132.062 29.177c-.863 0-1.566-.2-2.11-.603-.532-.402-.845-.951-.94-1.649l.142-.018V29h-2.607V16.231h2.66v5.728l-.16-.035a2.372 2.372 0 0 1 1.029-1.56c.568-.39 1.277-.586 2.128-.586.816 0 1.519.195 2.111.585.603.379 1.064.916 1.383 1.614.331.698.496 1.52.496 2.465 0 .958-.171 1.791-.514 2.5-.343.71-.822 1.26-1.436 1.65-.615.39-1.342.585-2.182.585Zm-.745-2.128c.627 0 1.135-.224 1.526-.674.39-.449.585-1.087.585-1.915 0-.828-.201-1.46-.603-1.898-.39-.437-.905-.656-1.543-.656-.615 0-1.123.225-1.525.674-.39.438-.585 1.07-.585 1.898 0 .827.195 1.466.585 1.915.402.438.922.656 1.56.656ZM141.104 29.177c-1.324 0-2.376-.266-3.157-.798-.78-.532-1.206-1.265-1.277-2.199h2.377c.059.402.26.71.603.922.355.201.839.302 1.454.302.556 0 .958-.077 1.206-.23a.778.778 0 0 0 .39-.692c0-.225-.077-.396-.23-.515-.142-.13-.408-.236-.798-.319l-1.455-.301c-1.075-.225-1.868-.562-2.376-1.011-.508-.461-.763-1.052-.763-1.774 0-.875.337-1.554 1.011-2.04.674-.496 1.614-.744 2.82-.744 1.194 0 2.146.242 2.855.727.71.473 1.1 1.135 1.171 1.986h-2.377a.909.909 0 0 0-.496-.691c-.284-.166-.686-.249-1.206-.249-.473 0-.828.071-1.064.213a.62.62 0 0 0-.337.568c0 .213.094.384.284.514.189.118.502.225.94.32l1.631.336c.91.19 1.596.544 2.057 1.064.473.509.71 1.112.71 1.81 0 .886-.349 1.578-1.047 2.074-.685.485-1.661.727-2.926.727ZM29.947 12.823h-4.466L21.014 6.53 7.079 26.14h4.477l9.458-13.317h4.466L16.023 26.14h4.488l9.436-13.317L42 29.791l-7.052.001v-3.639l-5-7.037-4.973 7.025v3.651H0L21.014.21l8.933 12.614Z"/></svg>